<svg class="svg-icon" style="width: 1.111328125em; height: 1em;vertical-align: middle;fill: currentColor;overflow: hidden;" viewBox="0 0 1138 1024" version="1.1" xmlns="http://www.w3.org/2000/svg"><path d="M1080.883 853.33H855.491s-1.45 64.88-1.45 114.658c0 32.882-21.448 56.007-55.837 56.007h-30.208L570.507 853.329H56.89C25.458 853.33 0 827.843 0 796.44V56.89C0 25.458 25.458 0 56.889 0h1023.994c31.431 0 56.89 25.458 56.89 56.889V796.44c0 31.403-25.459 56.89-56.89 56.89z m0-796.441H56.89V796.44H597.33l199.11 170.666V796.44h284.443V56.89zM170.666 540.413h796.44v56.889h-796.44v-56.889z m0-142.193h796.44v56.889h-796.44V398.22z m0-142.221h341.331v56.888H170.666V256z"  /></svg>